<?xml version="1.0" encoding="UTF-8" standalone="no"?>
<!-- Created with Inkscape (http://www.inkscape.org/) -->

<svg
   xmlns:dc="http://purl.org/dc/elements/1.1/"
   xmlns:cc="http://creativecommons.org/ns#"
   xmlns:rdf="http://www.w3.org/1999/02/22-rdf-syntax-ns#"
   xmlns:svg="http://www.w3.org/2000/svg"
   xmlns="http://www.w3.org/2000/svg"
   xmlns:sodipodi="http://sodipodi.sourceforge.net/DTD/sodipodi-0.dtd"
   xmlns:inkscape="http://www.inkscape.org/namespaces/inkscape"
   width="512"
   height="100"
   viewBox="0 0 512.00001 100"
   id="svg2"
   version="1.1"
   inkscape:version="0.91 r13725"
   sodipodi:docname="logo.svg"
   inkscape:export-filename="/home/petervaro/documents/personal/remote/threads/img/logo.png"
   inkscape:export-xdpi="91.410004"
   inkscape:export-ydpi="91.410004">
  <defs
     id="defs4" />
  <sodipodi:namedview
     id="base"
     pagecolor="#ffffff"
     bordercolor="#666666"
     borderopacity="1.0"
     inkscape:pageopacity="0.0"
     inkscape:pageshadow="2"
     inkscape:zoom="2.8284271"
     inkscape:cx="237.54511"
     inkscape:cy="67.567301"
     inkscape:document-units="px"
     inkscape:current-layer="layer1"
     showgrid="false"
     inkscape:window-width="2560"
     inkscape:window-height="1422"
     inkscape:window-x="0"
     inkscape:window-y="0"
     inkscape:window-maximized="1"
     inkscape:showpageshadow="false"
     units="px" />
  <metadata
     id="metadata7">
    <rdf:RDF>
      <cc:Work
         rdf:about="">
        <dc:format>image/svg+xml</dc:format>
        <dc:type
           rdf:resource="http://purl.org/dc/dcmitype/StillImage" />
        <dc:title></dc:title>
      </cc:Work>
    </rdf:RDF>
  </metadata>
  <g
     inkscape:label="Layer 1"
     inkscape:groupmode="layer"
     id="layer1"
     transform="translate(0,-952.36216)">
    <path
       style="font-style:normal;font-variant:normal;font-weight:normal;font-stretch:normal;font-size:medium;line-height:125%;font-family:Kanji_PA;-inkscape-font-specification:Kanji_PA;letter-spacing:0px;word-spacing:0px;fill:#d1dcd8;fill-opacity:1;stroke:none;stroke-width:1px;stroke-linecap:butt;stroke-linejoin:miter;stroke-opacity:1"
       d="m 467.67383,9.6679688 c -3.71105,0 -7.16744,0.5452292 -10.36914,1.6367192 -3.12891,1.09148 -5.859,2.617361 -8.1875,4.582031 -2.25574,1.89191 -4.03788,4.186586 -5.34766,6.878906 -1.23701,2.69234 -1.85547,5.601549 -1.85547,8.730469 0,3.49275 0.5838,6.513747 1.74805,9.060547 1.16425,2.47403 2.72674,4.654945 4.69141,6.546875 1.96466,1.8191 4.18417,3.420234 6.6582,4.802734 2.5468,1.3098 5.20172,2.512116 7.9668,3.603516 l 5.45898,2.074218 c 2.25574,0.8731 4.1111,1.709266 5.56641,2.509766 1.52808,0.7275 2.72836,1.455894 3.60156,2.183594 0.87318,0.7276 1.49165,1.490615 1.85547,2.291015 0.36383,0.7276 0.54687,1.563866 0.54687,2.509766 0,1.3098 -0.69737,2.263416 -1.41992,3.166016 -0.68362,0.8541 -1.65129,1.470143 -2.62695,1.964843 -1.01616,0.5154 -2.14901,0.791647 -3.26953,0.998047 -1.3506,0.2488 -2.73861,0.320197 -4.11133,0.279297 -1.62631,-0.049 -3.26263,-0.219641 -4.83985,-0.61914 -2.10826,-0.5339 -4.19909,-1.269963 -6.08593,-2.351563 -2.46809,-1.4147 -4.63594,-3.175953 -6.67774,-5.314453 -2.05641,-2.1538 -4.85458,-5.83255 -6.58984,-9.15625 -0.26342,2.2369 -0.79652,4.554678 -1.50977,7.142578 3.07435,5.1076 6.66141,10.298569 13.77149,13.605469 3.83019,1.7813 7.49529,2.402343 12.44336,2.402343 3.20168,0 5.8932,-0.329475 8.07617,-0.984374 2.25574,-0.7276 4.03984,-1.671638 5.34961,-2.835938 1.38255,-1.1642 2.36514,-2.474387 2.94726,-3.929688 0.6549,-1.455299 0.98243,-2.911887 0.98243,-4.367187 0,-2.1829 -0.43736,-4.038306 -1.31055,-5.566406 -0.80042,-1.6008 -1.92749,-2.984238 -3.38281,-4.148438 -1.38255,-1.1642 -3.02021,-2.181487 -4.91211,-3.054687 -1.89192,-0.9459 -3.92836,-1.855316 -6.11133,-2.728516 l -5.34766,-2.076172 c -3.12892,-1.237 -5.78773,-2.471984 -7.9707,-3.708984 -2.18297,-1.23702 -3.96315,-2.547138 -5.3457,-3.929688 -1.30978,-1.45532 -2.25576,-3.019759 -2.83789,-4.693359 -0.58212,-1.67361 -0.875,-3.565581 -0.875,-5.675781 0,-2.25574 0.47398,-4.328793 1.41992,-6.220703 0.94596,-1.89191 2.25607,-3.492955 3.92968,-4.802735 1.74638,-1.38255 3.78283,-2.438355 6.11133,-3.166015 2.40127,-0.80042 5.02152,-1.199219 7.85938,-1.199219 9.02294,0 15.7161,3.09031 20.08203,9.27539 l 5.24023,-3.601562 C 487.32036,13.70426 478.87974,9.6679688 467.67383,9.6679688 Z m -101.58399,0.2167968 0,61.3398434 3.63868,6.332032 29.54296,0 c 3.78382,0 7.35005,-0.726241 10.69727,-2.181641 3.41998,-1.4553 6.36581,-3.420531 8.83984,-5.894531 2.5468,-2.4741 4.5486,-5.385222 6.00391,-8.732422 1.45532,-3.3473 2.18359,-6.948188 2.18359,-10.804688 0,-3.7839 -0.72827,-7.351998 -2.18359,-10.699218 -1.45531,-3.41999 -3.45711,-6.365814 -6.00391,-8.839844 -2.47403,-2.5468 -5.41986,-4.546633 -8.83984,-6.001953 -3.34722,-1.45532 -6.91345,-2.183594 -10.69727,-2.183594 l -21.0664,0 0,49.005859 -4.54102,0 -1.24218,-2.146484 0,-52.863281 26.8496,0 c 4.65701,0 9.02278,0.909375 13.09766,2.728515 4.07488,1.74638 7.64111,4.146965 10.69727,7.203125 3.05616,3.05616 5.45675,6.622386 7.20312,10.697266 1.74638,4.07487 2.62109,8.442509 2.62109,13.099609 0,4.6569 -0.87471,9.022757 -2.62109,13.097657 -1.74637,4.0749 -4.14696,7.639212 -7.20312,10.695312 -3.05616,3.0562 -6.62239,5.458678 -10.69727,7.205078 -4.07488,1.7463 -8.44065,2.619141 -13.09766,2.619141 l -33.11914,0 -5.23242,-9.058594 -55.66406,0 L 296.41406,90 l 7.53125,0 5.12891,-9.167969 32.96484,0.109375 4.91016,9.058594 7.42383,0 -5.02149,-9.058594 7.75,0 4.91016,9.058594 37.25976,0 c 5.53019,0 10.69747,-1.055716 15.5,-3.166016 4.8753,-2.1102 9.13126,-4.984646 12.76954,-8.623046 3.63828,-3.638301 6.51284,-7.857557 8.62304,-12.660157 2.11021,-4.8753 3.16406,-10.077222 3.16406,-15.607422 0,-5.53026 -1.05385,-10.734075 -3.16406,-15.609375 -2.1102,-4.8753 -4.98476,-9.094636 -8.62304,-12.660156 -3.63828,-3.63828 -7.89424,-6.51479 -12.76954,-8.625 -4.80253,-2.1102 -9.96981,-3.1640624 -15.5,-3.1640624 z M 13,9.9921875 l 0,6.4414065 26.414062,0 0,5.785156 -26.414062,0 0,6.439453 26.414062,0 0,61.341797 6.439454,0 0,-73.566406 38.628906,0 0,5.785156 -32.84375,0 0,67.78125 6.439453,0 0,-61.341797 26.404297,0 0,61.341797 6.439453,0 0,-80.0078125 z m 83.707031,0 0,46.2812505 52.937499,0 0,-46.2812505 -6.44141,0 0,39.8398435 -5.89453,0 0,-39.8398435 -6.4375,0 0,39.8398435 -27.72461,0 0,-39.8398435 z m 59.416019,0 0,58.8320315 31.21679,0.111328 c 3.20168,0 6.21878,-0.620322 9.05664,-1.857422 2.83785,-1.237 5.31168,-2.911284 7.42188,-5.021484 2.11021,-2.1102 3.78446,-4.584075 5.02148,-7.421875 1.23701,-2.8378 1.85743,-5.856794 1.85743,-9.058594 0,-3.20165 -0.62042,-6.220724 -1.85743,-9.058594 -1.23702,-2.83786 -2.91127,-5.311665 -5.02148,-7.421875 -2.1102,-2.1102 -4.58403,-3.784474 -7.42188,-5.021484 -2.83786,-1.23702 -5.85496,-1.855469 -9.05664,-1.855469 l -19.10351,0 0,40.275391 -5.78321,0 0,-46.060547 24.88672,0 c 4.00211,0 7.74749,0.764888 11.24024,2.292968 3.56551,1.528081 6.65777,3.637739 9.27734,6.330079 2.69233,2.61956 4.802,5.711813 6.33008,9.277343 1.52808,3.49275 2.29297,7.240118 2.29297,11.242188 0,4.0021 -0.76489,7.785962 -2.29297,11.351562 -1.52808,3.4927 -3.63775,6.586897 -6.33008,9.279297 -2.61957,2.6195 -5.71183,4.69065 -9.27734,6.21875 -3.49275,1.5281 -7.23813,2.292969 -11.24024,2.292969 l -31.21679,0 0,15.28125 6.33007,0 0,-8.951172 5.78321,0 0,8.951172 6.4414,0 0,-8.951172 12.66211,0 c 2.3285,0 4.58265,-0.215844 6.76563,-0.652344 L 199.01758,90 l 7.09375,0 -5.78516,-11.460938 c 0.80042,-0.290999 1.5653,-0.618521 2.29297,-0.982421 0.80042,-0.3638 1.59998,-0.764472 2.40039,-1.201172 L 212.00586,90 c 26.41035,0 54.00923,0 76.76758,0 3.88745,-7.0614 7.78274,-14.118481 11.67773,-21.175781 l 57.30274,0 L 325.44922,9.9921875 C 312.26471,34.637978 297.92876,58.677447 285.19141,83.560547 l -69.24219,0 -5.58008,-11.023438 c 3.85658,-3.2744 6.87561,-7.204862 9.05859,-11.789062 2.25574,-4.6571 3.38282,-9.714475 3.38282,-15.171875 0,-4.87526 -0.94597,-9.458783 -2.83789,-13.751953 -1.81914,-4.36594 -4.36423,-8.149863 -7.63868,-11.351563 -3.20169,-3.27445 -6.95096,-5.821485 -11.24414,-7.640625 -4.29317,-1.89192 -8.8747,-2.8398435 -13.75,-2.8398435 z m 72.19922,0 0,0.1113285 0,6.330078 0,31.980468 33.50976,0 0,-6.330078 -14.8457,0 0,-13.425781 34.92773,0 0,-6.439453 -41.36523,0 0,19.865234 -5.78711,0 0,-25.65039 47.15234,0 0,-6.4414065 z M 468,20.363281 c -4.14765,0 -7.49422,1.017248 -10.04102,3.054688 -2.47403,1.96467 -3.71093,4.584925 -3.71093,7.859375 0,2.03744 0.36413,3.784914 1.09179,5.240234 0.72765,1.38256 1.71026,2.619458 2.94727,3.710938 1.30978,1.09149 2.76634,2.03746 4.36719,2.83789 1.67361,0.72764 3.45379,1.455934 5.3457,2.183594 l 5.34961,2.072266 c 3.56551,1.3825 6.54795,2.765837 8.94922,4.148437 2.47403,1.3825 4.47386,2.873809 6.00195,4.474609 1.52808,1.5281 2.62245,3.200432 3.27734,5.019532 0.6549,1.7464 0.98047,3.750159 0.98047,6.005859 0,5.0209 -2.03644,9.022359 -6.11132,12.005859 -2.1102,1.528001 -4.62063,2.691788 -7.53125,3.492188 -2.91063,0.7276 -6.11271,1.091797 -9.60547,1.091797 -1.74637,0 -3.74816,-0.109825 -6.00391,-0.328125 -2.25573,-0.2911 -4.74304,-0.802419 -6.98437,-1.636719 -2.42495,-0.9028 -4.82982,-2.021016 -6.87696,-3.603515 -3.36294,-2.5998 -6.38825,-5.543507 -8.57031,-9.441407 -0.63897,1.4542 -2.2149,4.48675 -3.30273,6.09375 1.21622,1.7694 2.99632,3.677428 4.66992,5.423828 1.67361,1.7463 3.74862,3.382157 6.22265,4.910157 2.5468,1.4553 5.52728,2.655562 8.94727,3.601562 3.41998,0.9458 7.38697,1.419922 11.89844,1.419922 8.58634,0 15.53575,-1.928656 20.84765,-5.785156 5.89401,-4.2205 8.8418,-9.967541 8.8418,-17.244141 0,-3.42 -0.5838,-6.404472 -1.74805,-8.951172 -1.09149,-2.6196 -2.65593,-4.9102 -4.69336,-6.875 -2.03744,-2.0374 -4.51124,-3.821509 -7.42187,-5.349609 -2.83786,-1.60085 -6.00335,-3.055454 -9.4961,-4.365234 l -5.23828,-2.185547 c -2.1102,-0.80043 -3.82108,-1.526751 -5.13086,-2.181641 -1.23701,-0.6549 -2.21766,-1.273339 -2.94531,-1.855469 -0.6549,-0.58212 -1.0942,-1.163963 -1.3125,-1.746093 -0.2183,-0.654891 -0.32422,-1.383174 -0.32422,-2.183594 0,-0.36383 0.0713,-0.799234 0.2168,-1.308594 0.2183,-0.50936 0.58244,-1.019937 1.0918,-1.529297 0.58212,-0.50935 1.34702,-0.908149 2.29297,-1.199219 0.94596,-0.36383 2.2175,-0.546875 3.81836,-0.546875 2.5468,0 4.6218,0.400742 6.22265,1.201172 1.67361,0.80042 3.01839,2.037338 4.03711,3.710938 l 5.34961,-3.494141 C 481.89961,25.346238 479.75333,23.383 477.2793,22.21875 474.87804,20.98174 471.78382,20.363281 468,20.363281 Z m -142.55078,3.054688 21.39258,38.859375 -7.75196,0 -13.64062,-24.123047 -13.75391,24.123047 -7.64258,0 z m -150.77149,5.240234 12.66211,0 c 2.3285,0 4.50944,0.437367 6.54688,1.310547 2.03743,0.87319 3.82153,2.073483 5.34961,3.601562 1.52808,1.52807 2.72837,3.346832 3.60156,5.457032 0.94595,2.03744 1.41797,4.220368 1.41797,6.548828 0,2.3286 -0.47202,4.511428 -1.41797,6.548828 -0.87319,2.0374 -2.07348,3.821509 -3.60156,5.349609 -1.52808,1.5281 -3.31218,2.764938 -5.34961,3.710938 -2.03744,0.8732 -4.21838,1.308594 -6.54688,1.308594 l -12.66211,0 z m 209.96875,0 14.625,0 c 2.91063,0 5.67537,0.581844 8.29493,1.746094 2.61957,1.09149 4.87568,2.582709 6.76757,4.474609 1.89192,1.89191 3.38313,4.149962 4.47461,6.769532 1.16425,2.619569 1.74805,5.384221 1.74805,8.294921 0,2.9105 -0.5838,5.673469 -1.74805,8.292969 -1.09148,2.5468 -2.58268,4.804931 -4.47461,6.769531 -1.89189,1.8919 -4.148,3.417732 -6.76757,4.582032 -2.61956,1.0915 -5.3843,1.636718 -8.29493,1.636718 l -14.625,0 z m -59.19726,22.59375 6.21875,11.025391 -12.55078,0 z m -97.12695,3.056641 0,23.248047 53.59179,0 3.38282,-6.439453 -38.31055,0 0,-10.369141 14.8457,0 0,-6.439453 z m 6.43945,6.439453 5.78711,0 0,10.369141 -5.78711,0 z m -138.054689,1.417969 0,27.724609 6.439449,0 0,-21.283203 27.72461,0 0,21.283203 6.4375,0 0,-21.283203 5.89453,0 0,21.392578 6.44141,0 0,-27.833984 z"
       transform="translate(0,952.36216)"
       id="path4153"
       inkscape:connector-curvature="0"
       sodipodi:nodetypes="scccsccccccccsccccccscccscccscccccscsssccsccscccsccsscccscccccscssssccsccccccccccccscscssccscccccccccccccccccccccccccccccccccccccccsssssssccccscccscccsccccccccscccccccccccccccscccsccccccccccccccccccscsccccccccsccsccccccccscsccccccccscccsccccsccccccccssscscscscccscscscccsccccccccccccccccccccccccccccccccc" />
  </g>
</svg>
